<svg xmlns="http://www.w3.org/2000/svg" xmlns:xlink="http://www.w3.org/1999/xlink" width="500" zoomAndPan="magnify" viewBox="0 0 375 374.999991" height="500" preserveAspectRatio="xMidYMid meet" version="1.0"><defs><g/><clipPath id="efe1b41ac6"><path d="M 66.515625 63.457031 L 308.484375 63.457031 L 308.484375 305.707031 L 66.515625 305.707031 Z M 66.515625 63.457031 " clip-rule="nonzero"/></clipPath></defs><g fill="#171b3e" fill-opacity="1"><g transform="translate(12.655628, 237.067637)"><g><path d="M 9.5 24.796875 L 7.390625 19.296875 L 11.140625 15.828125 L 7.09375 5.296875 L 1.984375 5.1875 L -0.046875 -0.109375 L 26.515625 1.078125 L 28.546875 6.375 Z M 22.09375 5.625 L 11.875 5.40625 L 14.625 12.578125 Z M 22.09375 5.625 "/></g></g></g><g fill="#171b3e" fill-opacity="1"><g transform="translate(24.207752, 266.026488)"><g><path d="M 20.28125 10.109375 L 22.71875 14.21875 L 14.578125 19.046875 C 13.097656 18.410156 11.640625 17.46875 10.203125 16.21875 C 8.773438 14.96875 7.632812 13.617188 6.78125 12.171875 C 5.53125 10.078125 4.875 7.898438 4.8125 5.640625 C 4.757812 3.378906 5.265625 1.273438 6.328125 -0.671875 C 7.398438 -2.628906 8.953125 -4.210938 10.984375 -5.421875 C 13.003906 -6.617188 15.128906 -7.207031 17.359375 -7.1875 C 19.597656 -7.175781 21.707031 -6.570312 23.6875 -5.375 C 25.664062 -4.1875 27.285156 -2.53125 28.546875 -0.40625 C 29.472656 1.15625 30.097656 2.84375 30.421875 4.65625 C 30.742188 6.476562 30.75 8.21875 30.4375 9.875 L 25.46875 9.203125 C 25.738281 7.992188 25.78125 6.753906 25.59375 5.484375 C 25.414062 4.210938 25.023438 3.066406 24.421875 2.046875 C 23.703125 0.828125 22.75 -0.101562 21.5625 -0.75 C 20.375 -1.40625 19.101562 -1.722656 17.75 -1.703125 C 16.394531 -1.691406 15.097656 -1.316406 13.859375 -0.578125 C 12.628906 0.148438 11.671875 1.117188 10.984375 2.328125 C 10.304688 3.535156 9.972656 4.816406 9.984375 6.171875 C 9.992188 7.523438 10.359375 8.804688 11.078125 10.015625 C 11.453125 10.640625 11.957031 11.25 12.59375 11.84375 C 13.226562 12.4375 13.925781 12.960938 14.6875 13.421875 Z M 20.28125 10.109375 "/></g></g></g><g fill="#171b3e" fill-opacity="1"><g transform="translate(40.217078, 292.061798)"><g><path d="M 1.71875 2.0625 L 20.421875 -13.5625 L 32.3125 0.671875 L 28.8125 3.59375 L 20.453125 -6.421875 L 16.390625 -3.03125 L 23.90625 5.96875 L 20.40625 8.90625 L 12.890625 -0.09375 L 8.75 3.359375 L 17.375 13.671875 L 13.875 16.59375 Z M 1.71875 2.0625 "/></g></g></g><g fill="#171b3e" fill-opacity="1"><g transform="translate(58.312778, 313.376192)"><g><path d="M 20.4375 6.1875 L 30.703125 -5.75 L 34.65625 -2.359375 L 18.765625 16.125 L 14.96875 12.859375 L 16.234375 -6.71875 L 6.015625 5.171875 L 2.03125 1.75 L 17.921875 -16.734375 L 21.71875 -13.46875 Z M 20.4375 6.1875 "/></g></g></g><g fill="#171b3e" fill-opacity="1"><g transform="translate(83.043149, 333.919143)"><g><path d="M 26.046875 -3.859375 C 25.847656 -5.140625 25.414062 -6.3125 24.75 -7.375 C 24.082031 -8.445312 23.257812 -9.28125 22.28125 -9.875 C 21.101562 -10.582031 19.851562 -10.9375 18.53125 -10.9375 C 17.21875 -10.9375 15.984375 -10.609375 14.828125 -9.953125 C 13.671875 -9.304688 12.726562 -8.378906 12 -7.171875 C 11.269531 -5.953125 10.878906 -4.671875 10.828125 -3.328125 C 10.785156 -1.992188 11.070312 -0.742188 11.6875 0.421875 C 12.300781 1.597656 13.195312 2.539062 14.375 3.25 C 15.3125 3.8125 16.394531 4.160156 17.625 4.296875 C 18.863281 4.429688 20.082031 4.347656 21.28125 4.046875 L 22.25 8.734375 C 20.445312 9.210938 18.585938 9.335938 16.671875 9.109375 C 14.765625 8.878906 13.054688 8.3125 11.546875 7.40625 C 9.492188 6.164062 7.921875 4.570312 6.828125 2.625 C 5.734375 0.675781 5.203125 -1.40625 5.234375 -3.625 C 5.265625 -5.851562 5.894531 -7.984375 7.125 -10.015625 C 8.332031 -12.015625 9.914062 -13.539062 11.875 -14.59375 C 13.832031 -15.644531 15.9375 -16.125 18.1875 -16.03125 C 20.445312 -15.9375 22.613281 -15.265625 24.6875 -14.015625 C 26.207031 -13.097656 27.515625 -11.882812 28.609375 -10.375 C 29.703125 -8.875 30.441406 -7.269531 30.828125 -5.5625 Z M 26.046875 -3.859375 "/></g></g></g><g fill="#171b3e" fill-opacity="1"><g transform="translate(107.845068, 348.406778)"><g><path d="M 2.484375 1.015625 L 11.6875 -21.5625 L 28.859375 -14.5625 L 27.140625 -10.328125 L 15.0625 -15.25 L 13.0625 -10.34375 L 23.921875 -5.921875 L 22.1875 -1.703125 L 11.328125 -6.125 L 9.296875 -1.125 L 21.75 3.9375 L 20.03125 8.15625 Z M 2.484375 1.015625 "/></g></g></g><g fill="#171b3e" fill-opacity="1"><g transform="translate(133.296256, 358.120635)"><g/></g></g><g fill="#171b3e" fill-opacity="1"><g transform="translate(146.279271, 362.075508)"><g><path d="M 16.578125 -22.109375 C 19.035156 -21.722656 21.148438 -20.867188 22.921875 -19.546875 C 24.691406 -18.222656 25.96875 -16.566406 26.75 -14.578125 C 27.539062 -12.597656 27.753906 -10.441406 27.390625 -8.109375 C 27.023438 -5.773438 26.15625 -3.773438 24.78125 -2.109375 C 23.414062 -0.453125 21.679688 0.734375 19.578125 1.453125 C 17.472656 2.171875 15.164062 2.335938 12.65625 1.953125 L 2.65625 0.40625 L 6.375 -23.6875 Z M 13.703125 -2.5625 C 15.035156 -2.363281 16.285156 -2.492188 17.453125 -2.953125 C 18.617188 -3.421875 19.582031 -4.171875 20.34375 -5.203125 C 21.113281 -6.234375 21.613281 -7.472656 21.84375 -8.921875 C 22.0625 -10.359375 21.941406 -11.703125 21.484375 -12.953125 C 21.035156 -14.203125 20.316406 -15.222656 19.328125 -16.015625 C 18.335938 -16.804688 17.15625 -17.3125 15.78125 -17.53125 L 11.109375 -18.25 L 8.796875 -3.328125 Z M 13.703125 -2.5625 "/></g></g></g><g fill="#171b3e" fill-opacity="1"><g transform="translate(177.413882, 366.355282)"><g><path d="M 2.6875 -0.03125 L 2.453125 -24.40625 L 21 -24.578125 L 21.046875 -20.015625 L 8 -19.890625 L 8.046875 -14.59375 L 19.765625 -14.703125 L 19.8125 -10.140625 L 8.09375 -10.03125 L 8.140625 -4.640625 L 21.578125 -4.765625 L 21.625 -0.203125 Z M 2.6875 -0.03125 "/></g></g></g><g fill="#171b3e" fill-opacity="1"><g transform="translate(204.64198, 365.482846)"><g/></g></g><g fill="#171b3e" fill-opacity="1"><g transform="translate(218.062312, 364.062005)"><g><path d="M 9.3125 -2.25 L -5.75 -23.6875 L 0 -25.078125 L 10.796875 -8.78125 L 12.953125 -28.21875 L 18.46875 -29.5625 L 14.8125 -3.59375 Z M 9.3125 -2.25 "/></g></g></g><g fill="#171b3e" fill-opacity="1"><g transform="translate(246.876205, 356.786757)"><g><path d="M 3.015625 -28.296875 C 5.242188 -29.265625 7.488281 -29.644531 9.75 -29.4375 C 12.019531 -29.226562 14.0625 -28.472656 15.875 -27.171875 C 17.695312 -25.878906 19.078125 -24.15625 20.015625 -22 C 20.941406 -19.851562 21.265625 -17.664062 20.984375 -15.4375 C 20.703125 -13.21875 19.863281 -11.203125 18.46875 -9.390625 C 17.070312 -7.585938 15.257812 -6.203125 13.03125 -5.234375 C 10.789062 -4.253906 8.535156 -3.875 6.265625 -4.09375 C 4.003906 -4.320312 1.960938 -5.082031 0.140625 -6.375 C -1.679688 -7.675781 -3.0625 -9.410156 -4 -11.578125 C -4.9375 -13.734375 -5.257812 -15.914062 -4.96875 -18.125 C -4.675781 -20.34375 -3.835938 -22.347656 -2.453125 -24.140625 C -1.066406 -25.929688 0.753906 -27.316406 3.015625 -28.296875 Z M 4.96875 -23.90625 C 3.738281 -23.375 2.726562 -22.5625 1.9375 -21.46875 C 1.144531 -20.375 0.675781 -19.148438 0.53125 -17.796875 C 0.382812 -16.453125 0.597656 -15.128906 1.171875 -13.828125 C 1.742188 -12.515625 2.578125 -11.453125 3.671875 -10.640625 C 4.773438 -9.828125 5.988281 -9.328125 7.3125 -9.140625 C 8.644531 -8.960938 9.925781 -9.140625 11.15625 -9.671875 C 12.40625 -10.210938 13.410156 -11.019531 14.171875 -12.09375 C 14.929688 -13.164062 15.375 -14.382812 15.5 -15.75 C 15.632812 -17.113281 15.414062 -18.453125 14.84375 -19.765625 C 14.269531 -21.066406 13.445312 -22.125 12.375 -22.9375 C 11.300781 -23.757812 10.109375 -24.257812 8.796875 -24.4375 C 7.492188 -24.625 6.21875 -24.445312 4.96875 -23.90625 Z M 4.96875 -23.90625 "/></g></g></g><g fill="#171b3e" fill-opacity="1"><g transform="translate(276.683149, 343.198459)"><g><path d="M 1.609375 -30.109375 L 6.25 -33.125 L 7.78125 -14.453125 L 12.078125 -7.84375 L 7.46875 -4.859375 L 3.25 -11.34375 L -13.375 -20.375 L -8.71875 -23.40625 L 2.453125 -17.609375 Z M 1.609375 -30.109375 "/></g></g></g><g fill="#171b3e" fill-opacity="1"><g transform="translate(299.898463, 327.822724)"><g><path d="M 19.65625 -17.875 L 15.296875 -13.90625 L 10.703125 -16.125 L 2.34375 -8.53125 L 4.109375 -3.734375 L -0.078125 0.078125 L -8.625 -25.078125 L -4.4375 -28.90625 Z M -2.796875 -22.625 L 0.71875 -13.03125 L 6.40625 -18.203125 Z M -2.796875 -22.625 "/></g></g></g><g fill="#171b3e" fill-opacity="1"><g transform="translate(322.68125, 306.538154)"><g><path d="M 2.046875 -22.578125 L 4.984375 -26.328125 L 12.4375 -20.5 C 12.382812 -18.882812 12.035156 -17.179688 11.390625 -15.390625 C 10.753906 -13.609375 9.921875 -12.054688 8.890625 -10.734375 C 7.378906 -8.816406 5.582031 -7.414062 3.5 -6.53125 C 1.414062 -5.65625 -0.726562 -5.359375 -2.9375 -5.640625 C -5.144531 -5.929688 -7.179688 -6.800781 -9.046875 -8.25 C -10.898438 -9.695312 -12.222656 -11.46875 -13.015625 -13.5625 C -13.816406 -15.65625 -14.019531 -17.835938 -13.625 -20.109375 C -13.226562 -22.378906 -12.265625 -24.492188 -10.734375 -26.453125 C -9.617188 -27.878906 -8.273438 -29.070312 -6.703125 -30.03125 C -5.128906 -31 -3.515625 -31.628906 -1.859375 -31.921875 L -0.6875 -27.078125 C -1.90625 -26.890625 -3.070312 -26.476562 -4.1875 -25.84375 C -5.300781 -25.21875 -6.222656 -24.4375 -6.953125 -23.5 C -7.828125 -22.382812 -8.351562 -21.148438 -8.53125 -19.796875 C -8.707031 -18.453125 -8.539062 -17.15625 -8.03125 -15.90625 C -7.53125 -14.65625 -6.710938 -13.585938 -5.578125 -12.703125 C -4.441406 -11.816406 -3.191406 -11.273438 -1.828125 -11.078125 C -0.460938 -10.890625 0.847656 -11.046875 2.109375 -11.546875 C 3.367188 -12.046875 4.429688 -12.847656 5.296875 -13.953125 C 5.742188 -14.535156 6.128906 -15.226562 6.453125 -16.03125 C 6.773438 -16.84375 7.007812 -17.691406 7.15625 -18.578125 Z M 2.046875 -22.578125 "/></g></g></g><g fill="#171b3e" fill-opacity="1"><g transform="translate(341.11487, 282.15942)"><g><path d="M 1.296875 -2.359375 L -20.0625 -14.109375 L -11.125 -30.359375 L -7.125 -28.15625 L -13.421875 -16.71875 L -8.78125 -14.171875 L -3.125 -24.4375 L 0.875 -22.234375 L -4.78125 -11.96875 L -0.0625 -9.375 L 6.421875 -21.15625 L 10.421875 -18.953125 Z M 1.296875 -2.359375 "/></g></g></g><g fill="#171b3e" fill-opacity="1"><g transform="translate(354.151741, 257.67304)"><g><path d="M -10 -23.65625 C -11.164062 -22.738281 -12.203125 -21.703125 -13.109375 -20.546875 C -14.023438 -19.390625 -14.65625 -18.34375 -15 -17.40625 C -15.332031 -16.519531 -15.429688 -15.753906 -15.296875 -15.109375 C -15.160156 -14.460938 -14.773438 -14.019531 -14.140625 -13.78125 C -13.335938 -13.488281 -12.582031 -13.640625 -11.875 -14.234375 C -11.175781 -14.828125 -10.304688 -15.828125 -9.265625 -17.234375 C -8.234375 -18.617188 -7.300781 -19.734375 -6.46875 -20.578125 C -5.644531 -21.421875 -4.640625 -22.03125 -3.453125 -22.40625 C -2.265625 -22.789062 -0.925781 -22.707031 0.5625 -22.15625 C 2.03125 -21.613281 3.148438 -20.757812 3.921875 -19.59375 C 4.691406 -18.4375 5.097656 -17.082031 5.140625 -15.53125 C 5.191406 -13.988281 4.898438 -12.359375 4.265625 -10.640625 C 3.578125 -8.785156 2.578125 -7.082031 1.265625 -5.53125 C -0.046875 -3.988281 -1.503906 -2.773438 -3.109375 -1.890625 L -6.578125 -5.515625 C -5.109375 -6.273438 -3.78125 -7.285156 -2.59375 -8.546875 C -1.414062 -9.816406 -0.597656 -11.070312 -0.140625 -12.3125 C 0.253906 -13.394531 0.363281 -14.304688 0.1875 -15.046875 C 0.0195312 -15.785156 -0.429688 -16.289062 -1.171875 -16.5625 C -1.753906 -16.78125 -2.304688 -16.757812 -2.828125 -16.5 C -3.359375 -16.238281 -3.859375 -15.84375 -4.328125 -15.3125 C -4.796875 -14.78125 -5.390625 -14.023438 -6.109375 -13.046875 C -7.117188 -11.640625 -8.019531 -10.519531 -8.8125 -9.6875 C -9.613281 -8.851562 -10.59375 -8.238281 -11.75 -7.84375 C -12.90625 -7.457031 -14.226562 -7.539062 -15.71875 -8.09375 C -17.082031 -8.59375 -18.144531 -9.40625 -18.90625 -10.53125 C -19.675781 -11.65625 -20.09375 -12.984375 -20.15625 -14.515625 C -20.226562 -16.046875 -19.9375 -17.695312 -19.28125 -19.46875 C -18.707031 -21.03125 -17.910156 -22.488281 -16.890625 -23.84375 C -15.867188 -25.195312 -14.753906 -26.320312 -13.546875 -27.21875 Z M -10 -23.65625 "/></g></g></g><g fill="#171b3e" fill-opacity="1"><g transform="translate(53.536556, 116.406062)"><g><path d="M -24.742188 -17.355469 L -19.957031 -14.25 L -18.664062 -16.242188 L -2.9375 -6.027344 L -4.230469 -4.035156 L 0.589844 -0.90625 L 13.765625 -21.199219 L 4.34375 -27.316406 L 0.390625 -21.230469 L 4.992188 -18.242188 L 1.957031 -13.566406 L -13.769531 -23.78125 L -12.523438 -25.699219 L -17.304688 -28.808594 Z M -24.742188 -17.355469 "/></g></g></g><g fill="#171b3e" fill-opacity="1"><g transform="translate(69.074217, 92.375608)"><g><path d="M 11.917969 -10.875 C 18.804688 -17.800781 18.417969 -25.863281 11.496094 -32.75 C 4.605469 -39.609375 -3.371094 -40.597656 -10.839844 -33.09375 C -17.148438 -26.753906 -16.972656 -17.800781 -10.355469 -11.21875 C -2.699219 -3.597656 5.550781 -4.476562 11.917969 -10.875 Z M 7.109375 -15.660156 C 5.160156 -13.699219 1.183594 -14.789062 -2.828125 -18.785156 C -6.625 -22.5625 -8.042969 -26.53125 -6.152344 -28.367188 C -3.804688 -30.726562 0.171875 -28.78125 3.878906 -25.09375 C 7.675781 -21.316406 9.03125 -17.589844 7.109375 -15.660156 Z M 7.109375 -15.660156 "/></g></g></g><g fill="#171b3e" fill-opacity="1"><g transform="translate(93.076765, 68.316535)"><g><path d="M -0.453125 -28.675781 L -3.382812 -33.414062 L -14.960938 -26.257812 L -12.03125 -21.519531 L -10.046875 -22.746094 L -0.0507812 -6.574219 L -2.035156 -5.347656 L 0.917969 -0.566406 L 12.496094 -7.722656 L 9.542969 -12.503906 L 7.558594 -11.277344 L 5.128906 -15.207031 L 6.417969 -19.203125 L 14.246094 -15.410156 L 11.75 -13.867188 L 14.703125 -9.085938 L 29.035156 -17.949219 L 26.082031 -22.726562 L 23.949219 -21.40625 L 9.371094 -28.394531 L 11.859375 -36.285156 L 13.992188 -37.601562 L 11.0625 -42.34375 L -1.179688 -34.777344 L 1.753906 -30.039062 L 4.398438 -31.671875 L 1.265625 -21.457031 L -2.4375 -27.449219 Z M -0.453125 -28.675781 "/></g></g></g><g fill="#171b3e" fill-opacity="1"><g transform="translate(124.925583, 49.125775)"><g><path d="M 15.546875 -4.320312 C 24.816406 -7.386719 28.113281 -14.757812 25.050781 -24.027344 C 21.996094 -33.257812 15.328125 -37.742188 5.277344 -34.421875 C -3.214844 -31.613281 -7.101562 -23.546875 -4.171875 -14.683594 C -0.78125 -4.429688 6.972656 -1.484375 15.546875 -4.320312 Z M 13.417969 -10.761719 C 10.792969 -9.894531 7.738281 -12.660156 5.960938 -18.035156 C 4.277344 -23.121094 4.808594 -27.300781 7.324219 -28.089844 C 10.480469 -29.132812 13.152344 -25.601562 14.792969 -20.636719 C 16.476562 -15.550781 16 -11.617188 13.417969 -10.761719 Z M 13.417969 -10.761719 "/></g></g></g><g fill="#171b3e" fill-opacity="1"><g transform="translate(156.899558, 38.013496)"><g><path d="M 29.847656 -24.410156 L 29.996094 -21.863281 L 30.851562 -7.457031 L 28.4375 -7.316406 L 28.769531 -1.707031 L 42.398438 -2.515625 L 42.066406 -8.125 L 39.695312 -7.984375 L 38.570312 -26.960938 L 40.941406 -27.101562 L 40.609375 -32.667969 L 24.175781 -31.691406 L 20.992188 -15.3125 L 15.679688 -31.1875 L -0.667969 -30.214844 L -0.335938 -24.652344 L 1.949219 -24.789062 L 3.078125 -5.765625 L 0.75 -5.628906 L 1.078125 -0.0625 L 12.765625 -0.757812 L 12.4375 -6.320312 L 9.980469 -6.175781 L 8.96875 -23.171875 L 9.144531 -23.179688 C 9.398438 -21.03125 10.105469 -18.605469 10.367188 -17.886719 L 16.21875 -0.960938 L 25.234375 -1.496094 L 28.765625 -18.546875 C 29.007812 -19.554688 29.445312 -22.4375 29.675781 -24.398438 Z M 29.847656 -24.410156 "/></g></g></g><g fill="#171b3e" fill-opacity="1"><g transform="translate(202.109296, 36.308208)"><g><path d="M 15.636719 3.976562 C 25.207031 5.925781 31.730469 1.167969 33.679688 -8.402344 C 35.617188 -17.929688 32.058594 -25.136719 21.683594 -27.246094 C 12.917969 -29.03125 5.539062 -23.960938 3.675781 -14.816406 C 1.523438 -4.230469 6.789062 2.175781 15.636719 3.976562 Z M 16.992188 -2.671875 C 14.28125 -3.222656 13.007812 -7.140625 14.136719 -12.6875 C 15.203125 -17.9375 17.742188 -21.304688 20.316406 -20.734375 C 23.574219 -20.070312 24.136719 -15.679688 23.09375 -10.554688 C 22.023438 -5.304688 19.660156 -2.128906 16.992188 -2.671875 Z M 16.992188 -2.671875 "/></g></g></g><g fill="#171b3e" fill-opacity="1"><g transform="translate(235.444755, 43.424566)"><g><path d="M 39.378906 -15.496094 L 12.902344 -27.316406 L 8.324219 -17.058594 L 14.125 -14.46875 L 16.378906 -19.519531 L 19.773438 -18.003906 L 12.128906 -0.878906 L 8.890625 -2.324219 L 6.550781 2.921875 L 21.226562 9.476562 L 23.570312 4.226562 L 20.296875 2.765625 L 27.9375 -14.359375 L 31.253906 -12.878906 L 29 -7.828125 L 34.800781 -5.238281 Z M 39.378906 -15.496094 "/></g></g></g><g fill="#171b3e" fill-opacity="1"><g transform="translate(265.067573, 57.530242)"><g><path d="M 17.730469 -24.476562 L 14.550781 -19.738281 L 16.8125 -18.222656 L 6.359375 -2.652344 L 4.101562 -4.167969 L 0.898438 0.601562 L 12.808594 8.597656 L 16.011719 3.824219 L 13.785156 2.332031 L 24.238281 -13.238281 L 26.460938 -11.746094 L 29.640625 -16.480469 Z M 17.730469 -24.476562 "/></g></g></g><g fill="#171b3e" fill-opacity="1"><g transform="translate(281.179004, 67.699222)"><g><path d="M 19.753906 5.726562 C 20.535156 4.796875 21.460938 3.042969 22.441406 1.042969 L 26.5625 -8.453125 L 28.234375 -6.824219 L 32.152344 -10.847656 L 20.761719 -21.941406 L 16.839844 -17.917969 L 18.542969 -16.257812 L 9.597656 9.34375 L 15.292969 14.890625 L 39.875 4.507812 L 41.390625 5.984375 L 45.308594 1.960938 L 36.519531 -6.597656 L 32.597656 -2.574219 L 34.242188 -0.976562 L 24.851562 3.027344 C 22.726562 3.972656 20.816406 5.070312 19.910156 5.875 Z M 19.753906 5.726562 "/></g></g></g><g fill="#171b3e" fill-opacity="1"><g transform="translate(306.263918, 92.835481)"><g><path d="M 25.828125 -15.691406 L 21.0625 -12.558594 L 22.558594 -10.285156 L 6.890625 0.0195312 L 5.394531 -2.253906 L 0.59375 0.902344 L 14.910156 22.671875 L 23.066406 17.308594 L 18.960938 11.0625 L 15.605469 13.269531 L 11.804688 7.492188 L 17.691406 3.625 L 22.199219 10.484375 L 27.003906 7.324219 L 22.492188 0.464844 L 27.472656 -2.808594 L 31.273438 2.964844 L 28.058594 5.078125 L 32.167969 11.324219 L 40.144531 6.078125 Z M 25.828125 -15.691406 "/></g></g></g><g clip-path="url(#efe1b41ac6)"><path fill="#171b3e" d="M 187.359375 63.457031 C 120.464844 63.457031 66.234375 117.683594 66.234375 184.582031 C 66.234375 251.476562 120.464844 305.707031 187.359375 305.707031 C 254.253906 305.707031 308.484375 251.476562 308.484375 184.582031 C 308.484375 117.683594 254.253906 63.457031 187.359375 63.457031 " fill-opacity="1" fill-rule="nonzero"/></g><path fill="#ffffff" d="M 153.460938 129.859375 L 153.460938 129.386719 L 153.21875 128.941406 C 151.570312 125.898438 148.71875 126.765625 146.894531 128.402344 L 146.136719 129.078125 L 146.351562 131.3125 C 140.574219 133.9375 137.230469 137.90625 137.25 143.273438 L 127.65625 145.507812 L 113.445312 161.050781 L 113.40625 165.847656 L 84.925781 184.253906 L 84.863281 210.914062 L 284.664062 210.914062 L 271.03125 184.636719 L 275.460938 184.636719 L 275.460938 169.988281 L 263.433594 169.988281 L 255.207031 154.128906 L 249.914062 154.128906 L 249.914062 150.652344 L 243.128906 150.652344 C 247.074219 147.957031 249.652344 141.574219 249.652344 134.597656 C 249.652344 119.207031 237.140625 106.742188 221.714844 106.742188 C 219.578125 106.742188 217.496094 106.984375 215.496094 107.4375 C 212.152344 108.195312 209.035156 109.550781 206.269531 111.386719 L 203.359375 112.644531 L 202.988281 97.957031 C 202.957031 95.710938 200.859375 94.707031 199.691406 94.316406 C 198.242188 93.828125 196.449219 93.644531 194.746094 93.699219 C 193.050781 93.753906 191.230469 94.050781 189.757812 94.699219 C 188.378906 95.304688 186.632812 96.5625 186.632812 98.789062 L 186.632812 124.167969 L 185.003906 125.171875 L 185.003906 118.976562 L 184.84375 118.601562 C 183.632812 115.730469 181.140625 113.976562 178.433594 113.300781 L 178.433594 110.304688 C 176.4375 109.445312 174.488281 109.445312 172.585938 110.304688 L 172.585938 113.460938 C 169.136719 114.53125 166.15625 117.386719 165.535156 122.074219 L 165.515625 122.203125 L 165.515625 138.941406 L 164.875 139.339844 L 164.652344 136.558594 L 164.625 136.429688 C 163.574219 131.515625 159.179688 129.757812 153.460938 129.859375 " fill-opacity="1" fill-rule="nonzero"/><path fill="#6cd4ff" d="M 296.425781 184.582031 C 296.425781 124.34375 247.597656 75.515625 187.359375 75.515625 C 127.121094 75.515625 78.292969 124.34375 78.292969 184.582031 C 78.292969 244.816406 127.121094 293.648438 187.359375 293.648438 C 247.597656 293.648438 296.425781 244.816406 296.425781 184.582031 " fill-opacity="1" fill-rule="nonzero"/><path fill="#171b3e" d="M 84.898438 186.664062 L 84.867188 208.90625 L 281.359375 208.90625 L 253.984375 156.140625 L 247.902344 156.140625 L 247.902344 152.664062 L 241.992188 152.664062 L 215.941406 109.398438 L 201.425781 115.667969 L 200.980469 98.007812 C 200.980469 94.808594 188.640625 94.808594 188.640625 98.789062 L 188.640625 125.292969 L 182.992188 128.765625 L 182.992188 119.382812 C 181.863281 116.699219 179.21875 115.203125 176.425781 115.007812 L 176.425781 112.316406 C 175.820312 111.835938 175.210938 111.835938 174.59375 112.316406 L 174.59375 115.066406 C 171.25 115.519531 168.117188 117.875 167.527344 122.335938 L 167.527344 140.0625 L 163.132812 142.769531 L 162.660156 136.847656 C 161.835938 133 158.101562 131.378906 151.449219 131.980469 L 151.449219 129.898438 C 150.75 128.605469 149.679688 128.605469 148.234375 129.898438 L 148.496094 132.589844 C 141.660156 135.265625 138.621094 139.351562 139.371094 144.84375 L 128.714844 147.320312 L 115.449219 161.839844 L 115.40625 166.945312 L 84.898438 186.664062 " fill-opacity="1" fill-rule="nonzero"/><path fill="#171b3e" d="M 247.640625 134.597656 C 247.640625 120.324219 236.035156 108.753906 221.714844 108.753906 C 207.398438 108.753906 195.789062 120.324219 195.789062 134.597656 C 195.789062 148.871094 207.398438 160.445312 221.714844 160.445312 C 236.035156 160.445312 247.640625 148.871094 247.640625 134.597656 " fill-opacity="1" fill-rule="nonzero"/><path fill="#ffffff" d="M 202.566406 133.726562 C 202.566406 122.304688 211.824219 113.046875 223.246094 113.046875 C 224.289062 113.046875 225.316406 113.125 226.320312 113.273438 C 216.355469 114.761719 208.714844 123.351562 208.714844 133.726562 C 208.714844 144.101562 216.355469 152.691406 226.320312 154.175781 C 225.316406 154.328125 224.289062 154.40625 223.246094 154.40625 C 211.824219 154.40625 202.566406 145.148438 202.566406 133.726562 " fill-opacity="1" fill-rule="nonzero"/><path fill="#ffffff" d="M 140.046875 162.785156 L 197.222656 126.105469 C 193.933594 136.601562 195.734375 144.976562 202.253906 149.867188 L 142.382812 174.496094 C 138.742188 172.09375 137.769531 165.238281 140.046875 162.785156 " fill-opacity="1" fill-rule="evenodd"/><path fill="#ffffff" d="M 191.007812 100.832031 C 192.679688 99.089844 195.253906 98.203125 195.957031 100.949219 L 195.722656 120.355469 L 191.167969 123.511719 L 191.007812 100.832031 " fill-opacity="1" fill-rule="evenodd"/><path fill="#ffffff" d="M 171.046875 137.203125 L 176.976562 133.488281 L 177.300781 122.617188 C 175.765625 119.738281 172.765625 119.320312 171.378906 124.007812 L 171.046875 137.203125 " fill-opacity="1" fill-rule="evenodd"/><path fill="#ffffff" d="M 142.980469 155.101562 L 150.75 150.230469 L 150.417969 136.820312 C 147.570312 135.089844 143.4375 138.25 142.964844 141.5 L 142.980469 155.101562 " fill-opacity="1" fill-rule="evenodd"/><path fill="#ffffff" d="M 260.847656 182.785156 L 271.847656 203.667969 L 230.925781 203.667969 L 221.625 183.058594 L 260.847656 182.785156 " fill-opacity="1" fill-rule="evenodd"/><path fill="#171b3e" d="M 253.683594 180.792969 L 266.445312 204.34375 L 261.0625 204.34375 L 248.878906 180.386719 L 253.683594 180.792969 " fill-opacity="1" fill-rule="evenodd"/><path fill="#171b3e" d="M 241.765625 181.164062 L 254.523438 204.714844 L 249.140625 204.714844 L 236.957031 180.757812 L 241.765625 181.164062 " fill-opacity="1" fill-rule="evenodd"/><path fill="#171b3e" d="M 231.371094 181.109375 L 244.132812 204.664062 L 238.75 204.664062 L 226.566406 180.703125 L 231.371094 181.109375 " fill-opacity="1" fill-rule="evenodd"/><path fill="#ffffff" d="M 203.886719 184.679688 C 203.679688 184.644531 203.46875 184.625 203.253906 184.625 C 199.691406 184.625 196.800781 189.785156 196.800781 196.15625 C 196.800781 202.523438 199.691406 207.683594 203.253906 207.683594 C 203.953125 207.683594 204.628906 207.488281 205.257812 207.117188 C 201.992188 206.546875 199.441406 201.628906 199.441406 195.644531 C 199.441406 190.523438 201.304688 186.1875 203.886719 184.679688 " fill-opacity="1" fill-rule="nonzero"/><path fill="#ffffff" d="M 171.726562 194.625 C 171.667969 195.265625 171.636719 195.921875 171.636719 196.589844 C 171.636719 203.265625 174.664062 208.679688 178.402344 208.679688 C 179.210938 208.679688 179.980469 208.429688 180.699219 207.964844 C 177.097656 207.964844 174.164062 202.996094 173.925781 196.703125 C 173.050781 196.050781 172.316406 195.359375 171.726562 194.625 " fill-opacity="1" fill-rule="nonzero"/><path fill="#ffffff" d="M 160.695312 176.070312 C 160.234375 175.917969 159.765625 175.839844 159.28125 175.839844 C 154.695312 175.839844 150.976562 183.085938 150.976562 192.023438 C 150.976562 200.960938 154.695312 208.207031 159.28125 208.207031 C 159.765625 208.207031 160.234375 208.125 160.695312 207.972656 C 156.777344 206.667969 153.796875 200.023438 153.796875 192.023438 C 153.796875 184.019531 156.777344 177.375 160.695312 176.070312 " fill-opacity="1" fill-rule="nonzero"/><path fill="#ffffff" d="M 140.136719 184.78125 L 139.964844 184.777344 C 136.660156 184.777344 133.980469 189.996094 133.980469 196.433594 C 133.980469 202.871094 136.660156 208.089844 139.964844 208.089844 C 140.632812 208.089844 141.277344 207.875 141.882812 207.476562 C 138.65625 207.296875 136.074219 202.152344 136.074219 195.828125 C 136.074219 190.695312 137.773438 186.339844 140.136719 184.78125 " fill-opacity="1" fill-rule="nonzero"/><path fill="#ffffff" d="M 131.78125 150.132812 L 132.085938 159.015625 L 138.667969 158.707031 L 138.667969 149.675781 L 131.78125 150.132812 " fill-opacity="1" fill-rule="evenodd"/><path fill="#ffffff" d="M 194.710938 158.804688 L 207.261719 179.835938 L 212.480469 179.621094 L 200.578125 159.070312 L 195.550781 158.464844 L 194.710938 158.804688 " fill-opacity="1" fill-rule="evenodd"/><path fill="#ffffff" d="M 195.550781 158.464844 L 121.265625 188.238281 L 121.421875 189.820312 L 196.289062 160.636719 L 195.550781 158.464844 " fill-opacity="1" fill-rule="evenodd"/><path fill="#ffffff" d="M 190.097656 166.207031 C 189.933594 166.191406 189.769531 166.183594 189.601562 166.183594 C 185.765625 166.183594 182.65625 169.882812 182.65625 174.445312 C 182.65625 179.003906 185.765625 182.703125 189.601562 182.703125 C 190.292969 182.703125 190.960938 182.582031 191.589844 182.359375 C 187.988281 182.054688 185.140625 178.480469 185.140625 174.121094 C 185.140625 170.382812 187.230469 167.222656 190.097656 166.207031 " fill-opacity="1" fill-rule="nonzero"/><path fill="#ffffff" d="M 187.339844 166.632812 L 166.144531 175.800781 C 164.855469 176.882812 164.351562 178.128906 164.628906 179.542969 L 183.46875 172.132812 L 187.339844 166.632812 " fill-opacity="1" fill-rule="evenodd"/><path fill="#ffffff" d="M 117.890625 174.796875 L 117.890625 163.019531 L 127.503906 152.980469 L 127.503906 155.066406 L 119.480469 163.679688 L 119.617188 174.757812 L 117.890625 174.796875 " fill-opacity="1" fill-rule="evenodd"/><path fill="#ffffff" d="M 117.105469 196.464844 C 116.996094 196.445312 116.886719 196.4375 116.78125 196.4375 C 114.960938 196.4375 113.484375 199.074219 113.484375 202.332031 C 113.484375 205.582031 114.960938 208.222656 116.78125 208.222656 C 117.136719 208.222656 117.480469 208.121094 117.804688 207.933594 C 116.136719 207.640625 114.832031 205.125 114.832031 202.066406 C 114.832031 199.453125 115.785156 197.234375 117.105469 196.464844 " fill-opacity="1" fill-rule="nonzero"/><path fill="#ffffff" d="M 99.660156 199.769531 C 99.578125 199.753906 99.496094 199.75 99.410156 199.75 C 97.996094 199.75 96.847656 201.796875 96.847656 204.328125 C 96.847656 206.855469 97.996094 208.90625 99.410156 208.90625 C 99.6875 208.90625 99.957031 208.828125 100.207031 208.679688 C 98.910156 208.453125 97.898438 206.5 97.898438 204.125 C 97.898438 202.089844 98.636719 200.367188 99.660156 199.769531 " fill-opacity="1" fill-rule="nonzero"/><path fill="#171b3e" d="M 218.039062 172 L 273.449219 172 L 273.449219 182.625 L 218.039062 182.625 L 218.039062 172 " fill-opacity="1" fill-rule="evenodd"/><path fill="#171b3e" d="M 219.828125 230.414062 C 223.292969 230.769531 225.695312 233.035156 225.160156 235.160156 C 221.3125 234.945312 219.121094 233.289062 218.691406 230.414062 C 219.121094 227.535156 221.3125 225.878906 225.160156 225.667969 C 225.695312 227.792969 223.292969 230.054688 219.828125 230.414062 " fill-opacity="1" fill-rule="evenodd"/><path fill="#171b3e" d="M 231.386719 235.160156 C 227.539062 234.945312 225.34375 233.289062 224.914062 230.414062 C 225.34375 227.535156 227.539062 225.878906 231.386719 225.667969 C 231.917969 227.792969 229.515625 230.054688 226.054688 230.414062 C 229.515625 230.769531 231.917969 233.035156 231.386719 235.160156 " fill-opacity="1" fill-rule="evenodd"/><path fill="#171b3e" d="M 237.609375 235.160156 C 233.761719 234.945312 231.570312 233.289062 231.140625 230.414062 C 231.570312 227.535156 233.761719 225.878906 237.609375 225.667969 C 238.144531 227.792969 235.742188 230.054688 232.277344 230.414062 C 235.742188 230.769531 238.144531 233.035156 237.609375 235.160156 " fill-opacity="1" fill-rule="evenodd"/><path fill="#171b3e" d="M 243.835938 235.160156 C 239.988281 234.945312 237.796875 233.289062 237.363281 230.414062 C 237.796875 227.535156 239.988281 225.878906 243.835938 225.667969 C 244.367188 227.792969 241.964844 230.054688 238.503906 230.414062 C 241.964844 230.769531 244.367188 233.035156 243.835938 235.160156 " fill-opacity="1" fill-rule="evenodd"/><path fill="#171b3e" d="M 250.058594 235.160156 C 246.210938 234.945312 244.019531 233.289062 243.589844 230.414062 C 244.019531 227.535156 246.210938 225.878906 250.058594 225.667969 C 250.589844 227.792969 248.191406 230.054688 244.726562 230.414062 C 248.191406 230.769531 250.589844 233.035156 250.058594 235.160156 " fill-opacity="1" fill-rule="evenodd"/><path fill="#171b3e" d="M 256.285156 235.160156 C 252.433594 234.945312 250.246094 233.289062 249.8125 230.414062 C 250.246094 227.535156 252.433594 225.878906 256.285156 225.667969 C 256.816406 227.792969 254.414062 230.054688 250.949219 230.414062 C 254.414062 230.769531 256.816406 233.035156 256.285156 235.160156 " fill-opacity="1" fill-rule="evenodd"/><path fill="#171b3e" d="M 262.511719 235.160156 C 258.660156 234.945312 256.46875 233.289062 256.039062 230.414062 C 256.46875 227.535156 258.660156 225.878906 262.511719 225.667969 C 263.039062 227.792969 260.640625 230.054688 257.175781 230.414062 C 260.640625 230.769531 263.039062 233.035156 262.511719 235.160156 " fill-opacity="1" fill-rule="evenodd"/><path fill="#171b3e" d="M 268.734375 235.160156 C 264.882812 234.945312 262.691406 233.289062 262.261719 230.414062 C 262.691406 227.535156 264.882812 225.878906 268.734375 225.667969 C 269.265625 227.792969 266.863281 230.054688 263.398438 230.414062 C 266.863281 230.769531 269.265625 233.035156 268.734375 235.160156 " fill-opacity="1" fill-rule="evenodd"/><path fill="#171b3e" d="M 269.625 230.414062 C 273.089844 230.769531 275.488281 233.035156 274.957031 235.160156 C 271.109375 234.945312 268.917969 233.289062 268.488281 230.414062 C 268.917969 227.535156 271.109375 225.878906 274.957031 225.667969 C 275.488281 227.792969 273.089844 230.054688 269.625 230.414062 " fill-opacity="1" fill-rule="evenodd"/><path fill="#171b3e" d="M 281.511719 231.714844 C 281.074219 229.648438 278.125 228.664062 274.976562 229.671875 L 273.644531 230.324219 C 275.292969 232.691406 277.976562 233.203125 281.511719 231.714844 " fill-opacity="1" fill-rule="evenodd"/><path fill="#171b3e" d="M 222.6875 222.964844 C 217.941406 227.296875 216.183594 226.71875 212.632812 229.886719 L 204.851562 229.886719 C 204.527344 230.289062 204.527344 230.710938 204.851562 231.144531 L 212.566406 231.144531 C 214.910156 233.023438 218.273438 235.160156 222.898438 236.546875 C 219.414062 234.425781 217.234375 232.296875 214.386719 230.402344 C 218.0625 227.902344 220.832031 225.421875 222.6875 222.964844 " fill-opacity="1" fill-rule="evenodd"/><path fill="#171b3e" d="M 153.25 230.414062 C 149.789062 230.769531 147.386719 233.035156 147.917969 235.160156 C 151.769531 234.945312 153.957031 233.289062 154.390625 230.414062 C 153.957031 227.535156 151.769531 225.878906 147.917969 225.667969 C 147.386719 227.792969 149.789062 230.054688 153.25 230.414062 " fill-opacity="1" fill-rule="evenodd"/><path fill="#171b3e" d="M 141.691406 235.160156 C 145.542969 234.945312 147.734375 233.289062 148.164062 230.414062 C 147.734375 227.535156 145.542969 225.878906 141.691406 225.667969 C 141.164062 227.792969 143.5625 230.054688 147.027344 230.414062 C 143.5625 230.769531 141.164062 233.035156 141.691406 235.160156 " fill-opacity="1" fill-rule="evenodd"/><path fill="#171b3e" d="M 135.46875 235.160156 C 139.316406 234.945312 141.507812 233.289062 141.9375 230.414062 C 141.507812 227.535156 139.316406 225.878906 135.46875 225.667969 C 134.9375 227.792969 137.339844 230.054688 140.800781 230.414062 C 137.339844 230.769531 134.9375 233.035156 135.46875 235.160156 " fill-opacity="1" fill-rule="evenodd"/><path fill="#171b3e" d="M 129.242188 235.160156 C 133.09375 234.945312 135.285156 233.289062 135.714844 230.414062 C 135.285156 227.535156 133.09375 225.878906 129.242188 225.667969 C 128.714844 227.792969 131.113281 230.054688 134.574219 230.414062 C 131.113281 230.769531 128.714844 233.035156 129.242188 235.160156 " fill-opacity="1" fill-rule="evenodd"/><path fill="#171b3e" d="M 123.019531 235.160156 C 126.871094 234.945312 129.058594 233.289062 129.492188 230.414062 C 129.058594 227.535156 126.871094 225.878906 123.019531 225.667969 C 122.488281 227.792969 124.890625 230.054688 128.351562 230.414062 C 124.890625 230.769531 122.488281 233.035156 123.019531 235.160156 " fill-opacity="1" fill-rule="evenodd"/><path fill="#171b3e" d="M 116.792969 235.160156 C 120.644531 234.945312 122.835938 233.289062 123.265625 230.414062 C 122.835938 227.535156 120.644531 225.878906 116.792969 225.667969 C 116.265625 227.792969 118.664062 230.054688 122.128906 230.414062 C 118.664062 230.769531 116.265625 233.035156 116.792969 235.160156 " fill-opacity="1" fill-rule="evenodd"/><path fill="#171b3e" d="M 110.570312 235.160156 C 114.421875 234.945312 116.609375 233.289062 117.039062 230.414062 C 116.609375 227.535156 114.421875 225.878906 110.570312 225.667969 C 110.039062 227.792969 112.441406 230.054688 115.902344 230.414062 C 112.441406 230.769531 110.039062 233.035156 110.570312 235.160156 " fill-opacity="1" fill-rule="evenodd"/><path fill="#171b3e" d="M 104.34375 235.160156 C 108.195312 234.945312 110.386719 233.289062 110.816406 230.414062 C 110.386719 227.535156 108.195312 225.878906 104.34375 225.667969 C 103.816406 227.792969 106.21875 230.054688 109.679688 230.414062 C 106.21875 230.769531 103.816406 233.035156 104.34375 235.160156 " fill-opacity="1" fill-rule="evenodd"/><path fill="#171b3e" d="M 103.453125 230.414062 C 99.992188 230.769531 97.589844 233.035156 98.121094 235.160156 C 101.972656 234.945312 104.160156 233.289062 104.59375 230.414062 C 104.160156 227.535156 101.972656 225.878906 98.121094 225.667969 C 97.589844 227.792969 99.992188 230.054688 103.453125 230.414062 " fill-opacity="1" fill-rule="evenodd"/><path fill="#171b3e" d="M 91.566406 231.714844 C 92.007812 229.648438 94.957031 228.664062 98.101562 229.671875 L 99.4375 230.324219 C 97.789062 232.691406 95.101562 233.203125 91.566406 231.714844 " fill-opacity="1" fill-rule="evenodd"/><path fill="#171b3e" d="M 150.390625 222.964844 C 155.140625 227.296875 156.898438 226.71875 160.449219 229.886719 L 168.230469 229.886719 C 168.554688 230.289062 168.554688 230.710938 168.230469 231.144531 L 160.511719 231.144531 C 158.167969 233.023438 154.808594 235.160156 150.183594 236.546875 C 153.664062 234.425781 155.847656 232.296875 158.695312 230.402344 C 155.015625 227.902344 152.246094 225.421875 150.390625 222.964844 " fill-opacity="1" fill-rule="evenodd"/><path fill="#ffffff" d="M 218.015625 146.011719 L 227.847656 138.9375 L 237.679688 146.011719 L 233.988281 134.476562 L 243.753906 127.3125 L 231.644531 127.257812 L 227.847656 115.753906 L 224.050781 127.257812 L 211.941406 127.3125 L 221.707031 134.476562 L 218.015625 146.011719 " fill-opacity="1" fill-rule="evenodd"/><path fill="#171b3e" d="M 181.628906 239.347656 L 187.207031 235.335938 L 192.78125 239.347656 L 190.6875 232.804688 L 196.226562 228.742188 L 189.359375 228.710938 L 187.207031 222.1875 L 185.054688 228.710938 L 178.183594 228.742188 L 183.722656 232.804688 L 181.628906 239.347656 " fill-opacity="1" fill-rule="evenodd"/><path fill="#171b3e" d="M 293.703125 208.90625 L 81.015625 208.90625 C 81.59375 211.453125 82.265625 213.964844 83.019531 216.441406 L 291.699219 216.441406 C 292.457031 213.964844 293.125 211.453125 293.703125 208.90625 " fill-opacity="1" fill-rule="nonzero"/></svg>
