<svg xmlns="http://www.w3.org/2000/svg" xmlns:xlink="http://www.w3.org/1999/xlink" width="500" zoomAndPan="magnify" viewBox="0 0 375 374.999991" height="500" preserveAspectRatio="xMidYMid meet" version="1.0"><defs><g/><clipPath id="4414c73cac"><path d="M 66.515625 63.457031 L 308.765625 63.457031 L 308.765625 305.707031 L 66.515625 305.707031 Z M 66.515625 63.457031 " clip-rule="nonzero"/></clipPath></defs><g fill="#171b3e" fill-opacity="1"><g transform="translate(12.655628, 237.067637)"><g><path d="M 9.5 24.796875 L 7.390625 19.296875 L 11.140625 15.828125 L 7.09375 5.296875 L 1.984375 5.1875 L -0.046875 -0.109375 L 26.515625 1.078125 L 28.546875 6.375 Z M 22.09375 5.625 L 11.875 5.40625 L 14.625 12.578125 Z M 22.09375 5.625 "/></g></g></g><g fill="#171b3e" fill-opacity="1"><g transform="translate(24.207752, 266.026488)"><g><path d="M 20.28125 10.109375 L 22.71875 14.21875 L 14.578125 19.046875 C 13.097656 18.410156 11.640625 17.46875 10.203125 16.21875 C 8.773438 14.96875 7.632812 13.617188 6.78125 12.171875 C 5.53125 10.078125 4.875 7.898438 4.8125 5.640625 C 4.757812 3.378906 5.265625 1.273438 6.328125 -0.671875 C 7.398438 -2.628906 8.953125 -4.210938 10.984375 -5.421875 C 13.003906 -6.617188 15.128906 -7.207031 17.359375 -7.1875 C 19.597656 -7.175781 21.707031 -6.570312 23.6875 -5.375 C 25.664062 -4.1875 27.285156 -2.53125 28.546875 -0.40625 C 29.472656 1.15625 30.097656 2.84375 30.421875 4.65625 C 30.742188 6.476562 30.75 8.21875 30.4375 9.875 L 25.46875 9.203125 C 25.738281 7.992188 25.78125 6.753906 25.59375 5.484375 C 25.414062 4.210938 25.023438 3.066406 24.421875 2.046875 C 23.703125 0.828125 22.75 -0.101562 21.5625 -0.75 C 20.375 -1.40625 19.101562 -1.722656 17.75 -1.703125 C 16.394531 -1.691406 15.097656 -1.316406 13.859375 -0.578125 C 12.628906 0.148438 11.671875 1.117188 10.984375 2.328125 C 10.304688 3.535156 9.972656 4.816406 9.984375 6.171875 C 9.992188 7.523438 10.359375 8.804688 11.078125 10.015625 C 11.453125 10.640625 11.957031 11.25 12.59375 11.84375 C 13.226562 12.4375 13.925781 12.960938 14.6875 13.421875 Z M 20.28125 10.109375 "/></g></g></g><g fill="#171b3e" fill-opacity="1"><g transform="translate(40.217078, 292.061798)"><g><path d="M 1.71875 2.0625 L 20.421875 -13.5625 L 32.3125 0.671875 L 28.8125 3.59375 L 20.453125 -6.421875 L 16.390625 -3.03125 L 23.90625 5.96875 L 20.40625 8.90625 L 12.890625 -0.09375 L 8.75 3.359375 L 17.375 13.671875 L 13.875 16.59375 Z M 1.71875 2.0625 "/></g></g></g><g fill="#171b3e" fill-opacity="1"><g transform="translate(58.312778, 313.376192)"><g><path d="M 20.4375 6.1875 L 30.703125 -5.75 L 34.65625 -2.359375 L 18.765625 16.125 L 14.96875 12.859375 L 16.234375 -6.71875 L 6.015625 5.171875 L 2.03125 1.75 L 17.921875 -16.734375 L 21.71875 -13.46875 Z M 20.4375 6.1875 "/></g></g></g><g fill="#171b3e" fill-opacity="1"><g transform="translate(83.043149, 333.919143)"><g><path d="M 26.046875 -3.859375 C 25.847656 -5.140625 25.414062 -6.3125 24.75 -7.375 C 24.082031 -8.445312 23.257812 -9.28125 22.28125 -9.875 C 21.101562 -10.582031 19.851562 -10.9375 18.53125 -10.9375 C 17.21875 -10.9375 15.984375 -10.609375 14.828125 -9.953125 C 13.671875 -9.304688 12.726562 -8.378906 12 -7.171875 C 11.269531 -5.953125 10.878906 -4.671875 10.828125 -3.328125 C 10.785156 -1.992188 11.070312 -0.742188 11.6875 0.421875 C 12.300781 1.597656 13.195312 2.539062 14.375 3.25 C 15.3125 3.8125 16.394531 4.160156 17.625 4.296875 C 18.863281 4.429688 20.082031 4.347656 21.28125 4.046875 L 22.25 8.734375 C 20.445312 9.210938 18.585938 9.335938 16.671875 9.109375 C 14.765625 8.878906 13.054688 8.3125 11.546875 7.40625 C 9.492188 6.164062 7.921875 4.570312 6.828125 2.625 C 5.734375 0.675781 5.203125 -1.40625 5.234375 -3.625 C 5.265625 -5.851562 5.894531 -7.984375 7.125 -10.015625 C 8.332031 -12.015625 9.914062 -13.539062 11.875 -14.59375 C 13.832031 -15.644531 15.9375 -16.125 18.1875 -16.03125 C 20.445312 -15.9375 22.613281 -15.265625 24.6875 -14.015625 C 26.207031 -13.097656 27.515625 -11.882812 28.609375 -10.375 C 29.703125 -8.875 30.441406 -7.269531 30.828125 -5.5625 Z M 26.046875 -3.859375 "/></g></g></g><g fill="#171b3e" fill-opacity="1"><g transform="translate(107.845068, 348.406778)"><g><path d="M 2.484375 1.015625 L 11.6875 -21.5625 L 28.859375 -14.5625 L 27.140625 -10.328125 L 15.0625 -15.25 L 13.0625 -10.34375 L 23.921875 -5.921875 L 22.1875 -1.703125 L 11.328125 -6.125 L 9.296875 -1.125 L 21.75 3.9375 L 20.03125 8.15625 Z M 2.484375 1.015625 "/></g></g></g><g fill="#171b3e" fill-opacity="1"><g transform="translate(133.296256, 358.120635)"><g/></g></g><g fill="#171b3e" fill-opacity="1"><g transform="translate(146.279271, 362.075508)"><g><path d="M 16.578125 -22.109375 C 19.035156 -21.722656 21.148438 -20.867188 22.921875 -19.546875 C 24.691406 -18.222656 25.96875 -16.566406 26.75 -14.578125 C 27.539062 -12.597656 27.753906 -10.441406 27.390625 -8.109375 C 27.023438 -5.773438 26.15625 -3.773438 24.78125 -2.109375 C 23.414062 -0.453125 21.679688 0.734375 19.578125 1.453125 C 17.472656 2.171875 15.164062 2.335938 12.65625 1.953125 L 2.65625 0.40625 L 6.375 -23.6875 Z M 13.703125 -2.5625 C 15.035156 -2.363281 16.285156 -2.492188 17.453125 -2.953125 C 18.617188 -3.421875 19.582031 -4.171875 20.34375 -5.203125 C 21.113281 -6.234375 21.613281 -7.472656 21.84375 -8.921875 C 22.0625 -10.359375 21.941406 -11.703125 21.484375 -12.953125 C 21.035156 -14.203125 20.316406 -15.222656 19.328125 -16.015625 C 18.335938 -16.804688 17.15625 -17.3125 15.78125 -17.53125 L 11.109375 -18.25 L 8.796875 -3.328125 Z M 13.703125 -2.5625 "/></g></g></g><g fill="#171b3e" fill-opacity="1"><g transform="translate(177.413882, 366.355282)"><g><path d="M 2.6875 -0.03125 L 2.453125 -24.40625 L 21 -24.578125 L 21.046875 -20.015625 L 8 -19.890625 L 8.046875 -14.59375 L 19.765625 -14.703125 L 19.8125 -10.140625 L 8.09375 -10.03125 L 8.140625 -4.640625 L 21.578125 -4.765625 L 21.625 -0.203125 Z M 2.6875 -0.03125 "/></g></g></g><g fill="#171b3e" fill-opacity="1"><g transform="translate(204.64198, 365.482846)"><g/></g></g><g fill="#171b3e" fill-opacity="1"><g transform="translate(218.062312, 364.062005)"><g><path d="M 9.3125 -2.25 L -5.75 -23.6875 L 0 -25.078125 L 10.796875 -8.78125 L 12.953125 -28.21875 L 18.46875 -29.5625 L 14.8125 -3.59375 Z M 9.3125 -2.25 "/></g></g></g><g fill="#171b3e" fill-opacity="1"><g transform="translate(246.876205, 356.786757)"><g><path d="M 3.015625 -28.296875 C 5.242188 -29.265625 7.488281 -29.644531 9.75 -29.4375 C 12.019531 -29.226562 14.0625 -28.472656 15.875 -27.171875 C 17.695312 -25.878906 19.078125 -24.15625 20.015625 -22 C 20.941406 -19.851562 21.265625 -17.664062 20.984375 -15.4375 C 20.703125 -13.21875 19.863281 -11.203125 18.46875 -9.390625 C 17.070312 -7.585938 15.257812 -6.203125 13.03125 -5.234375 C 10.789062 -4.253906 8.535156 -3.875 6.265625 -4.09375 C 4.003906 -4.320312 1.960938 -5.082031 0.140625 -6.375 C -1.679688 -7.675781 -3.0625 -9.410156 -4 -11.578125 C -4.9375 -13.734375 -5.257812 -15.914062 -4.96875 -18.125 C -4.675781 -20.34375 -3.835938 -22.347656 -2.453125 -24.140625 C -1.066406 -25.929688 0.753906 -27.316406 3.015625 -28.296875 Z M 4.96875 -23.90625 C 3.738281 -23.375 2.726562 -22.5625 1.9375 -21.46875 C 1.144531 -20.375 0.675781 -19.148438 0.53125 -17.796875 C 0.382812 -16.453125 0.597656 -15.128906 1.171875 -13.828125 C 1.742188 -12.515625 2.578125 -11.453125 3.671875 -10.640625 C 4.773438 -9.828125 5.988281 -9.328125 7.3125 -9.140625 C 8.644531 -8.960938 9.925781 -9.140625 11.15625 -9.671875 C 12.40625 -10.210938 13.410156 -11.019531 14.171875 -12.09375 C 14.929688 -13.164062 15.375 -14.382812 15.5 -15.75 C 15.632812 -17.113281 15.414062 -18.453125 14.84375 -19.765625 C 14.269531 -21.066406 13.445312 -22.125 12.375 -22.9375 C 11.300781 -23.757812 10.109375 -24.257812 8.796875 -24.4375 C 7.492188 -24.625 6.21875 -24.445312 4.96875 -23.90625 Z M 4.96875 -23.90625 "/></g></g></g><g fill="#171b3e" fill-opacity="1"><g transform="translate(276.683149, 343.198459)"><g><path d="M 1.609375 -30.109375 L 6.25 -33.125 L 7.78125 -14.453125 L 12.078125 -7.84375 L 7.46875 -4.859375 L 3.25 -11.34375 L -13.375 -20.375 L -8.71875 -23.40625 L 2.453125 -17.609375 Z M 1.609375 -30.109375 "/></g></g></g><g fill="#171b3e" fill-opacity="1"><g transform="translate(299.898463, 327.822724)"><g><path d="M 19.65625 -17.875 L 15.296875 -13.90625 L 10.703125 -16.125 L 2.34375 -8.53125 L 4.109375 -3.734375 L -0.078125 0.078125 L -8.625 -25.078125 L -4.4375 -28.90625 Z M -2.796875 -22.625 L 0.71875 -13.03125 L 6.40625 -18.203125 Z M -2.796875 -22.625 "/></g></g></g><g fill="#171b3e" fill-opacity="1"><g transform="translate(322.68125, 306.538154)"><g><path d="M 2.046875 -22.578125 L 4.984375 -26.328125 L 12.4375 -20.5 C 12.382812 -18.882812 12.035156 -17.179688 11.390625 -15.390625 C 10.753906 -13.609375 9.921875 -12.054688 8.890625 -10.734375 C 7.378906 -8.816406 5.582031 -7.414062 3.5 -6.53125 C 1.414062 -5.65625 -0.726562 -5.359375 -2.9375 -5.640625 C -5.144531 -5.929688 -7.179688 -6.800781 -9.046875 -8.25 C -10.898438 -9.695312 -12.222656 -11.46875 -13.015625 -13.5625 C -13.816406 -15.65625 -14.019531 -17.835938 -13.625 -20.109375 C -13.226562 -22.378906 -12.265625 -24.492188 -10.734375 -26.453125 C -9.617188 -27.878906 -8.273438 -29.070312 -6.703125 -30.03125 C -5.128906 -31 -3.515625 -31.628906 -1.859375 -31.921875 L -0.6875 -27.078125 C -1.90625 -26.890625 -3.070312 -26.476562 -4.1875 -25.84375 C -5.300781 -25.21875 -6.222656 -24.4375 -6.953125 -23.5 C -7.828125 -22.382812 -8.351562 -21.148438 -8.53125 -19.796875 C -8.707031 -18.453125 -8.539062 -17.15625 -8.03125 -15.90625 C -7.53125 -14.65625 -6.710938 -13.585938 -5.578125 -12.703125 C -4.441406 -11.816406 -3.191406 -11.273438 -1.828125 -11.078125 C -0.460938 -10.890625 0.847656 -11.046875 2.109375 -11.546875 C 3.367188 -12.046875 4.429688 -12.847656 5.296875 -13.953125 C 5.742188 -14.535156 6.128906 -15.226562 6.453125 -16.03125 C 6.773438 -16.84375 7.007812 -17.691406 7.15625 -18.578125 Z M 2.046875 -22.578125 "/></g></g></g><g fill="#171b3e" fill-opacity="1"><g transform="translate(341.11487, 282.15942)"><g><path d="M 1.296875 -2.359375 L -20.0625 -14.109375 L -11.125 -30.359375 L -7.125 -28.15625 L -13.421875 -16.71875 L -8.78125 -14.171875 L -3.125 -24.4375 L 0.875 -22.234375 L -4.78125 -11.96875 L -0.0625 -9.375 L 6.421875 -21.15625 L 10.421875 -18.953125 Z M 1.296875 -2.359375 "/></g></g></g><g fill="#171b3e" fill-opacity="1"><g transform="translate(354.151741, 257.67304)"><g><path d="M -10 -23.65625 C -11.164062 -22.738281 -12.203125 -21.703125 -13.109375 -20.546875 C -14.023438 -19.390625 -14.65625 -18.34375 -15 -17.40625 C -15.332031 -16.519531 -15.429688 -15.753906 -15.296875 -15.109375 C -15.160156 -14.460938 -14.773438 -14.019531 -14.140625 -13.78125 C -13.335938 -13.488281 -12.582031 -13.640625 -11.875 -14.234375 C -11.175781 -14.828125 -10.304688 -15.828125 -9.265625 -17.234375 C -8.234375 -18.617188 -7.300781 -19.734375 -6.46875 -20.578125 C -5.644531 -21.421875 -4.640625 -22.03125 -3.453125 -22.40625 C -2.265625 -22.789062 -0.925781 -22.707031 0.5625 -22.15625 C 2.03125 -21.613281 3.148438 -20.757812 3.921875 -19.59375 C 4.691406 -18.4375 5.097656 -17.082031 5.140625 -15.53125 C 5.191406 -13.988281 4.898438 -12.359375 4.265625 -10.640625 C 3.578125 -8.785156 2.578125 -7.082031 1.265625 -5.53125 C -0.046875 -3.988281 -1.503906 -2.773438 -3.109375 -1.890625 L -6.578125 -5.515625 C -5.109375 -6.273438 -3.78125 -7.285156 -2.59375 -8.546875 C -1.414062 -9.816406 -0.597656 -11.070312 -0.140625 -12.3125 C 0.253906 -13.394531 0.363281 -14.304688 0.1875 -15.046875 C 0.0195312 -15.785156 -0.429688 -16.289062 -1.171875 -16.5625 C -1.753906 -16.78125 -2.304688 -16.757812 -2.828125 -16.5 C -3.359375 -16.238281 -3.859375 -15.84375 -4.328125 -15.3125 C -4.796875 -14.78125 -5.390625 -14.023438 -6.109375 -13.046875 C -7.117188 -11.640625 -8.019531 -10.519531 -8.8125 -9.6875 C -9.613281 -8.851562 -10.59375 -8.238281 -11.75 -7.84375 C -12.90625 -7.457031 -14.226562 -7.539062 -15.71875 -8.09375 C -17.082031 -8.59375 -18.144531 -9.40625 -18.90625 -10.53125 C -19.675781 -11.65625 -20.09375 -12.984375 -20.15625 -14.515625 C -20.226562 -16.046875 -19.9375 -17.695312 -19.28125 -19.46875 C -18.707031 -21.03125 -17.910156 -22.488281 -16.890625 -23.84375 C -15.867188 -25.195312 -14.753906 -26.320312 -13.546875 -27.21875 Z M -10 -23.65625 "/></g></g></g><g fill="#171b3e" fill-opacity="1"><g transform="translate(53.536556, 116.406062)"><g><path d="M -24.742188 -17.355469 L -19.957031 -14.25 L -18.664062 -16.242188 L -2.9375 -6.027344 L -4.230469 -4.035156 L 0.589844 -0.90625 L 13.765625 -21.199219 L 4.34375 -27.316406 L 0.390625 -21.230469 L 4.992188 -18.242188 L 1.957031 -13.566406 L -13.769531 -23.78125 L -12.523438 -25.699219 L -17.304688 -28.808594 Z M -24.742188 -17.355469 "/></g></g></g><g fill="#171b3e" fill-opacity="1"><g transform="translate(69.074217, 92.375608)"><g><path d="M 11.917969 -10.875 C 18.804688 -17.800781 18.417969 -25.863281 11.496094 -32.75 C 4.605469 -39.609375 -3.371094 -40.597656 -10.839844 -33.09375 C -17.148438 -26.753906 -16.972656 -17.800781 -10.355469 -11.21875 C -2.699219 -3.597656 5.550781 -4.476562 11.917969 -10.875 Z M 7.109375 -15.660156 C 5.160156 -13.699219 1.183594 -14.789062 -2.828125 -18.785156 C -6.625 -22.5625 -8.042969 -26.53125 -6.152344 -28.367188 C -3.804688 -30.726562 0.171875 -28.78125 3.878906 -25.09375 C 7.675781 -21.316406 9.03125 -17.589844 7.109375 -15.660156 Z M 7.109375 -15.660156 "/></g></g></g><g fill="#171b3e" fill-opacity="1"><g transform="translate(93.076765, 68.316535)"><g><path d="M -0.453125 -28.675781 L -3.382812 -33.414062 L -14.960938 -26.257812 L -12.03125 -21.519531 L -10.046875 -22.746094 L -0.0507812 -6.574219 L -2.035156 -5.347656 L 0.917969 -0.566406 L 12.496094 -7.722656 L 9.542969 -12.503906 L 7.558594 -11.277344 L 5.128906 -15.207031 L 6.417969 -19.203125 L 14.246094 -15.410156 L 11.75 -13.867188 L 14.703125 -9.085938 L 29.035156 -17.949219 L 26.082031 -22.726562 L 23.949219 -21.40625 L 9.371094 -28.394531 L 11.859375 -36.285156 L 13.992188 -37.601562 L 11.0625 -42.34375 L -1.179688 -34.777344 L 1.753906 -30.039062 L 4.398438 -31.671875 L 1.265625 -21.457031 L -2.4375 -27.449219 Z M -0.453125 -28.675781 "/></g></g></g><g fill="#171b3e" fill-opacity="1"><g transform="translate(124.925583, 49.125775)"><g><path d="M 15.546875 -4.320312 C 24.816406 -7.386719 28.113281 -14.757812 25.050781 -24.027344 C 21.996094 -33.257812 15.328125 -37.742188 5.277344 -34.421875 C -3.214844 -31.613281 -7.101562 -23.546875 -4.171875 -14.683594 C -0.78125 -4.429688 6.972656 -1.484375 15.546875 -4.320312 Z M 13.417969 -10.761719 C 10.792969 -9.894531 7.738281 -12.660156 5.960938 -18.035156 C 4.277344 -23.121094 4.808594 -27.300781 7.324219 -28.089844 C 10.480469 -29.132812 13.152344 -25.601562 14.792969 -20.636719 C 16.476562 -15.550781 16 -11.617188 13.417969 -10.761719 Z M 13.417969 -10.761719 "/></g></g></g><g fill="#171b3e" fill-opacity="1"><g transform="translate(156.899558, 38.013496)"><g><path d="M 29.847656 -24.410156 L 29.996094 -21.863281 L 30.851562 -7.457031 L 28.4375 -7.316406 L 28.769531 -1.707031 L 42.398438 -2.515625 L 42.066406 -8.125 L 39.695312 -7.984375 L 38.570312 -26.960938 L 40.941406 -27.101562 L 40.609375 -32.667969 L 24.175781 -31.691406 L 20.992188 -15.3125 L 15.679688 -31.1875 L -0.667969 -30.214844 L -0.335938 -24.652344 L 1.949219 -24.789062 L 3.078125 -5.765625 L 0.75 -5.628906 L 1.078125 -0.0625 L 12.765625 -0.757812 L 12.4375 -6.320312 L 9.980469 -6.175781 L 8.96875 -23.171875 L 9.144531 -23.179688 C 9.398438 -21.03125 10.105469 -18.605469 10.367188 -17.886719 L 16.21875 -0.960938 L 25.234375 -1.496094 L 28.765625 -18.546875 C 29.007812 -19.554688 29.445312 -22.4375 29.675781 -24.398438 Z M 29.847656 -24.410156 "/></g></g></g><g fill="#171b3e" fill-opacity="1"><g transform="translate(202.109296, 36.308208)"><g><path d="M 15.636719 3.976562 C 25.207031 5.925781 31.730469 1.167969 33.679688 -8.402344 C 35.617188 -17.929688 32.058594 -25.136719 21.683594 -27.246094 C 12.917969 -29.03125 5.539062 -23.960938 3.675781 -14.816406 C 1.523438 -4.230469 6.789062 2.175781 15.636719 3.976562 Z M 16.992188 -2.671875 C 14.28125 -3.222656 13.007812 -7.140625 14.136719 -12.6875 C 15.203125 -17.9375 17.742188 -21.304688 20.316406 -20.734375 C 23.574219 -20.070312 24.136719 -15.679688 23.09375 -10.554688 C 22.023438 -5.304688 19.660156 -2.128906 16.992188 -2.671875 Z M 16.992188 -2.671875 "/></g></g></g><g fill="#171b3e" fill-opacity="1"><g transform="translate(235.444755, 43.424566)"><g><path d="M 39.378906 -15.496094 L 12.902344 -27.316406 L 8.324219 -17.058594 L 14.125 -14.46875 L 16.378906 -19.519531 L 19.773438 -18.003906 L 12.128906 -0.878906 L 8.890625 -2.324219 L 6.550781 2.921875 L 21.226562 9.476562 L 23.570312 4.226562 L 20.296875 2.765625 L 27.9375 -14.359375 L 31.253906 -12.878906 L 29 -7.828125 L 34.800781 -5.238281 Z M 39.378906 -15.496094 "/></g></g></g><g fill="#171b3e" fill-opacity="1"><g transform="translate(265.067573, 57.530242)"><g><path d="M 17.730469 -24.476562 L 14.550781 -19.738281 L 16.8125 -18.222656 L 6.359375 -2.652344 L 4.101562 -4.167969 L 0.898438 0.601562 L 12.808594 8.597656 L 16.011719 3.824219 L 13.785156 2.332031 L 24.238281 -13.238281 L 26.460938 -11.746094 L 29.640625 -16.480469 Z M 17.730469 -24.476562 "/></g></g></g><g fill="#171b3e" fill-opacity="1"><g transform="translate(281.179004, 67.699222)"><g><path d="M 19.753906 5.726562 C 20.535156 4.796875 21.460938 3.042969 22.441406 1.042969 L 26.5625 -8.453125 L 28.234375 -6.824219 L 32.152344 -10.847656 L 20.761719 -21.941406 L 16.839844 -17.917969 L 18.542969 -16.257812 L 9.597656 9.34375 L 15.292969 14.890625 L 39.875 4.507812 L 41.390625 5.984375 L 45.308594 1.960938 L 36.519531 -6.597656 L 32.597656 -2.574219 L 34.242188 -0.976562 L 24.851562 3.027344 C 22.726562 3.972656 20.816406 5.070312 19.910156 5.875 Z M 19.753906 5.726562 "/></g></g></g><g fill="#171b3e" fill-opacity="1"><g transform="translate(306.263918, 92.835481)"><g><path d="M 25.828125 -15.691406 L 21.0625 -12.558594 L 22.558594 -10.285156 L 6.890625 0.0195312 L 5.394531 -2.253906 L 0.59375 0.902344 L 14.910156 22.671875 L 23.066406 17.308594 L 18.960938 11.0625 L 15.605469 13.269531 L 11.804688 7.492188 L 17.691406 3.625 L 22.199219 10.484375 L 27.003906 7.324219 L 22.492188 0.464844 L 27.472656 -2.808594 L 31.273438 2.964844 L 28.058594 5.078125 L 32.167969 11.324219 L 40.144531 6.078125 Z M 25.828125 -15.691406 "/></g></g></g><g clip-path="url(#4414c73cac)"><path fill="#171b3e" d="M 187.640625 63.457031 C 254.535156 63.457031 308.761719 117.683594 308.761719 184.582031 C 308.761719 251.476562 254.535156 305.707031 187.640625 305.707031 C 120.742188 305.707031 66.515625 251.476562 66.515625 184.582031 C 66.515625 117.683594 120.742188 63.457031 187.640625 63.457031 " fill-opacity="1" fill-rule="nonzero"/></g><path fill="#ffffff" d="M 221.539062 129.859375 L 221.539062 129.386719 L 221.78125 128.941406 C 223.429688 125.898438 226.28125 126.765625 228.105469 128.402344 L 228.863281 129.078125 L 228.644531 131.3125 C 234.425781 133.9375 237.769531 137.90625 237.75 143.273438 L 247.34375 145.507812 L 261.554688 161.050781 L 261.59375 165.847656 L 290.074219 184.253906 L 290.136719 210.914062 L 90.335938 210.914062 L 103.96875 184.636719 L 99.539062 184.636719 L 99.539062 169.988281 L 111.566406 169.988281 L 119.792969 154.128906 L 125.085938 154.128906 L 125.085938 150.652344 L 131.867188 150.652344 C 127.921875 147.957031 125.347656 141.574219 125.347656 134.597656 C 125.347656 119.207031 137.859375 106.742188 153.28125 106.742188 C 155.417969 106.742188 157.5 106.984375 159.5 107.4375 C 162.847656 108.195312 165.964844 109.550781 168.730469 111.386719 L 171.640625 112.644531 L 172.007812 97.957031 C 172.039062 95.710938 174.140625 94.707031 175.308594 94.316406 C 176.753906 93.828125 178.550781 93.644531 180.25 93.699219 C 181.949219 93.753906 183.769531 94.050781 185.238281 94.699219 C 186.621094 95.304688 188.367188 96.5625 188.367188 98.789062 L 188.367188 124.167969 L 189.996094 125.171875 L 189.996094 118.976562 L 190.152344 118.601562 C 191.363281 115.730469 193.855469 113.976562 196.5625 113.300781 L 196.5625 110.304688 C 198.558594 109.445312 200.507812 109.445312 202.414062 110.304688 L 202.414062 113.460938 C 205.859375 114.53125 208.84375 117.386719 209.464844 122.074219 L 209.480469 122.203125 L 209.480469 138.941406 L 210.125 139.339844 L 210.34375 136.558594 L 210.375 136.429688 C 211.421875 131.515625 215.820312 129.757812 221.539062 129.859375 " fill-opacity="1" fill-rule="nonzero"/><path fill="#6cd4ff" d="M 78.570312 184.582031 C 78.570312 124.34375 127.402344 75.515625 187.640625 75.515625 C 247.875 75.515625 296.707031 124.34375 296.707031 184.582031 C 296.707031 244.816406 247.875 293.648438 187.640625 293.648438 C 127.402344 293.648438 78.570312 244.816406 78.570312 184.582031 " fill-opacity="1" fill-rule="nonzero"/><path fill="#171b3e" d="M 290.101562 186.664062 L 290.128906 208.90625 L 93.640625 208.90625 L 121.015625 156.140625 L 127.09375 156.140625 L 127.09375 152.664062 L 133.003906 152.664062 L 159.058594 109.398438 L 173.574219 115.667969 L 174.019531 98.007812 C 174.019531 94.808594 186.359375 94.808594 186.359375 98.789062 L 186.359375 125.292969 L 192.007812 128.765625 L 192.007812 119.382812 C 193.132812 116.699219 195.777344 115.203125 198.574219 115.007812 L 198.574219 112.316406 C 199.175781 111.835938 199.789062 111.835938 200.40625 112.316406 L 200.40625 115.066406 C 203.746094 115.519531 206.882812 117.875 207.472656 122.335938 L 207.472656 140.0625 L 211.863281 142.769531 L 212.339844 136.847656 C 213.160156 133 216.898438 131.378906 223.546875 131.980469 L 223.546875 129.898438 C 224.25 128.605469 225.320312 128.605469 226.761719 129.898438 L 226.5 132.589844 C 233.335938 135.265625 236.378906 139.351562 235.625 144.84375 L 246.28125 147.320312 L 259.550781 161.839844 L 259.589844 166.945312 L 290.101562 186.664062 " fill-opacity="1" fill-rule="nonzero"/><path fill="#171b3e" d="M 127.355469 134.597656 C 127.355469 120.324219 138.964844 108.753906 153.28125 108.753906 C 167.597656 108.753906 179.207031 120.324219 179.207031 134.597656 C 179.207031 148.871094 167.597656 160.445312 153.28125 160.445312 C 138.964844 160.445312 127.355469 148.871094 127.355469 134.597656 " fill-opacity="1" fill-rule="nonzero"/><path fill="#ffffff" d="M 172.433594 133.726562 C 172.433594 122.304688 163.175781 113.046875 151.753906 113.046875 C 150.710938 113.046875 149.683594 113.125 148.679688 113.273438 C 158.640625 114.761719 166.285156 123.351562 166.285156 133.726562 C 166.285156 144.101562 158.640625 152.691406 148.679688 154.175781 C 149.683594 154.328125 150.710938 154.40625 151.753906 154.40625 C 163.175781 154.40625 172.433594 145.148438 172.433594 133.726562 " fill-opacity="1" fill-rule="nonzero"/><path fill="#ffffff" d="M 234.949219 162.785156 L 177.773438 126.105469 C 181.0625 136.601562 179.265625 144.976562 172.746094 149.867188 L 232.617188 174.496094 C 236.253906 172.09375 237.230469 165.238281 234.949219 162.785156 " fill-opacity="1" fill-rule="evenodd"/><path fill="#ffffff" d="M 183.988281 100.832031 C 182.320312 99.089844 179.746094 98.203125 179.039062 100.949219 L 179.277344 120.355469 L 183.832031 123.511719 L 183.988281 100.832031 " fill-opacity="1" fill-rule="evenodd"/><path fill="#ffffff" d="M 203.953125 137.203125 L 198.023438 133.488281 L 197.699219 122.617188 C 199.234375 119.738281 202.234375 119.320312 203.621094 124.007812 L 203.953125 137.203125 " fill-opacity="1" fill-rule="evenodd"/><path fill="#ffffff" d="M 232.019531 155.101562 L 224.25 150.230469 L 224.578125 136.820312 C 227.429688 135.089844 231.558594 138.25 232.035156 141.5 L 232.019531 155.101562 " fill-opacity="1" fill-rule="evenodd"/><path fill="#ffffff" d="M 114.152344 182.785156 L 103.152344 203.667969 L 144.074219 203.667969 L 153.371094 183.058594 L 114.152344 182.785156 " fill-opacity="1" fill-rule="evenodd"/><path fill="#171b3e" d="M 121.3125 180.792969 L 108.554688 204.34375 L 113.9375 204.34375 L 126.117188 180.386719 L 121.3125 180.792969 " fill-opacity="1" fill-rule="evenodd"/><path fill="#171b3e" d="M 133.234375 181.164062 L 120.476562 204.714844 L 125.855469 204.714844 L 138.039062 180.757812 L 133.234375 181.164062 " fill-opacity="1" fill-rule="evenodd"/><path fill="#171b3e" d="M 143.628906 181.109375 L 130.867188 204.664062 L 136.25 204.664062 L 148.429688 180.703125 L 143.628906 181.109375 " fill-opacity="1" fill-rule="evenodd"/><path fill="#ffffff" d="M 171.109375 184.679688 C 171.320312 184.644531 171.53125 184.625 171.746094 184.625 C 175.308594 184.625 178.195312 189.785156 178.195312 196.15625 C 178.195312 202.523438 175.308594 207.683594 171.746094 207.683594 C 171.046875 207.683594 170.371094 207.488281 169.742188 207.117188 C 173.003906 206.546875 175.558594 201.628906 175.558594 195.644531 C 175.558594 190.523438 173.691406 186.1875 171.109375 184.679688 " fill-opacity="1" fill-rule="nonzero"/><path fill="#ffffff" d="M 203.273438 194.625 C 203.332031 195.265625 203.363281 195.921875 203.363281 196.589844 C 203.363281 203.265625 200.332031 208.679688 196.597656 208.679688 C 195.789062 208.679688 195.015625 208.429688 194.300781 207.964844 C 197.902344 207.964844 200.832031 202.996094 201.070312 196.703125 C 201.945312 196.050781 202.679688 195.359375 203.273438 194.625 " fill-opacity="1" fill-rule="nonzero"/><path fill="#ffffff" d="M 214.304688 176.070312 C 214.765625 175.917969 215.234375 175.839844 215.714844 175.839844 C 220.300781 175.839844 224.019531 183.085938 224.019531 192.023438 C 224.019531 200.960938 220.300781 208.207031 215.714844 208.207031 C 215.234375 208.207031 214.765625 208.125 214.304688 207.972656 C 218.222656 206.667969 221.203125 200.023438 221.203125 192.023438 C 221.203125 184.019531 218.222656 177.375 214.304688 176.070312 " fill-opacity="1" fill-rule="nonzero"/><path fill="#ffffff" d="M 234.863281 184.78125 L 235.035156 184.777344 C 238.339844 184.777344 241.019531 189.996094 241.019531 196.433594 C 241.019531 202.871094 238.339844 208.089844 235.035156 208.089844 C 234.363281 208.089844 233.71875 207.875 233.117188 207.476562 C 236.339844 207.296875 238.925781 202.152344 238.925781 195.828125 C 238.925781 190.695312 237.226562 186.339844 234.863281 184.78125 " fill-opacity="1" fill-rule="nonzero"/><path fill="#ffffff" d="M 243.21875 150.132812 L 242.914062 159.015625 L 236.332031 158.707031 L 236.332031 149.675781 L 243.21875 150.132812 " fill-opacity="1" fill-rule="evenodd"/><path fill="#ffffff" d="M 180.289062 158.804688 L 167.738281 179.835938 L 162.519531 179.621094 L 174.417969 159.070312 L 179.445312 158.464844 L 180.289062 158.804688 " fill-opacity="1" fill-rule="evenodd"/><path fill="#ffffff" d="M 179.445312 158.464844 L 253.730469 188.238281 L 253.578125 189.820312 L 178.710938 160.636719 L 179.445312 158.464844 " fill-opacity="1" fill-rule="evenodd"/><path fill="#ffffff" d="M 184.902344 166.207031 C 185.066406 166.191406 185.230469 166.183594 185.398438 166.183594 C 189.234375 166.183594 192.34375 169.882812 192.34375 174.445312 C 192.34375 179.003906 189.234375 182.703125 185.398438 182.703125 C 184.707031 182.703125 184.039062 182.582031 183.410156 182.359375 C 187.011719 182.054688 189.855469 178.480469 189.855469 174.121094 C 189.855469 170.382812 187.765625 167.222656 184.902344 166.207031 " fill-opacity="1" fill-rule="nonzero"/><path fill="#ffffff" d="M 187.65625 166.632812 L 208.855469 175.800781 C 210.144531 176.882812 210.648438 178.128906 210.367188 179.542969 L 191.53125 172.132812 L 187.65625 166.632812 " fill-opacity="1" fill-rule="evenodd"/><path fill="#ffffff" d="M 257.105469 174.796875 L 257.105469 163.019531 L 247.496094 152.980469 L 247.496094 155.066406 L 255.515625 163.679688 L 255.382812 174.757812 L 257.105469 174.796875 " fill-opacity="1" fill-rule="evenodd"/><path fill="#ffffff" d="M 257.894531 196.464844 C 258.003906 196.445312 258.109375 196.4375 258.21875 196.4375 C 260.039062 196.4375 261.515625 199.074219 261.515625 202.332031 C 261.515625 205.582031 260.039062 208.222656 258.21875 208.222656 C 257.859375 208.222656 257.515625 208.121094 257.195312 207.933594 C 258.863281 207.640625 260.167969 205.125 260.167969 202.066406 C 260.167969 199.453125 259.214844 197.234375 257.894531 196.464844 " fill-opacity="1" fill-rule="nonzero"/><path fill="#ffffff" d="M 275.335938 199.769531 C 275.417969 199.753906 275.503906 199.75 275.589844 199.75 C 277.003906 199.75 278.152344 201.796875 278.152344 204.328125 C 278.152344 206.855469 277.003906 208.90625 275.589844 208.90625 C 275.3125 208.90625 275.042969 208.828125 274.792969 208.679688 C 276.089844 208.453125 277.101562 206.5 277.101562 204.125 C 277.101562 202.089844 276.359375 200.367188 275.335938 199.769531 " fill-opacity="1" fill-rule="nonzero"/><path fill="#171b3e" d="M 156.960938 172 L 101.546875 172 L 101.546875 182.625 L 156.960938 182.625 L 156.960938 172 " fill-opacity="1" fill-rule="evenodd"/><path fill="#171b3e" d="M 155.167969 230.414062 C 151.707031 230.769531 149.304688 233.035156 149.835938 235.160156 C 153.6875 234.945312 155.878906 233.289062 156.308594 230.414062 C 155.878906 227.535156 153.6875 225.878906 149.835938 225.667969 C 149.304688 227.792969 151.707031 230.054688 155.167969 230.414062 " fill-opacity="1" fill-rule="evenodd"/><path fill="#171b3e" d="M 143.613281 235.160156 C 147.460938 234.945312 149.652344 233.289062 150.082031 230.414062 C 149.652344 227.535156 147.460938 225.878906 143.613281 225.667969 C 143.082031 227.792969 145.484375 230.054688 148.945312 230.414062 C 145.484375 230.769531 143.082031 233.035156 143.613281 235.160156 " fill-opacity="1" fill-rule="evenodd"/><path fill="#171b3e" d="M 137.386719 235.160156 C 141.238281 234.945312 143.429688 233.289062 143.859375 230.414062 C 143.429688 227.535156 141.238281 225.878906 137.386719 225.667969 C 136.855469 227.792969 139.257812 230.054688 142.71875 230.414062 C 139.257812 230.769531 136.855469 233.035156 137.386719 235.160156 " fill-opacity="1" fill-rule="evenodd"/><path fill="#171b3e" d="M 131.164062 235.160156 C 135.011719 234.945312 137.203125 233.289062 137.632812 230.414062 C 137.203125 227.535156 135.011719 225.878906 131.164062 225.667969 C 130.632812 227.792969 133.03125 230.054688 136.496094 230.414062 C 133.03125 230.769531 130.632812 233.035156 131.164062 235.160156 " fill-opacity="1" fill-rule="evenodd"/><path fill="#171b3e" d="M 124.9375 235.160156 C 128.789062 234.945312 130.980469 233.289062 131.410156 230.414062 C 130.980469 227.535156 128.789062 225.878906 124.9375 225.667969 C 124.40625 227.792969 126.808594 230.054688 130.269531 230.414062 C 126.808594 230.769531 124.40625 233.035156 124.9375 235.160156 " fill-opacity="1" fill-rule="evenodd"/><path fill="#171b3e" d="M 118.714844 235.160156 C 122.5625 234.945312 124.753906 233.289062 125.183594 230.414062 C 124.753906 227.535156 122.5625 225.878906 118.714844 225.667969 C 118.179688 227.792969 120.582031 230.054688 124.046875 230.414062 C 120.582031 230.769531 118.179688 233.035156 118.714844 235.160156 " fill-opacity="1" fill-rule="evenodd"/><path fill="#171b3e" d="M 112.488281 235.160156 C 116.335938 234.945312 118.53125 233.289062 118.960938 230.414062 C 118.53125 227.535156 116.335938 225.878906 112.488281 225.667969 C 111.957031 227.792969 114.359375 230.054688 117.820312 230.414062 C 114.359375 230.769531 111.957031 233.035156 112.488281 235.160156 " fill-opacity="1" fill-rule="evenodd"/><path fill="#171b3e" d="M 106.265625 235.160156 C 110.113281 234.945312 112.308594 233.289062 112.734375 230.414062 C 112.308594 227.535156 110.113281 225.878906 106.265625 225.667969 C 105.734375 227.792969 108.136719 230.054688 111.597656 230.414062 C 108.136719 230.769531 105.734375 233.035156 106.265625 235.160156 " fill-opacity="1" fill-rule="evenodd"/><path fill="#171b3e" d="M 105.371094 230.414062 C 101.910156 230.769531 99.511719 233.035156 100.039062 235.160156 C 103.890625 234.945312 106.082031 233.289062 106.511719 230.414062 C 106.082031 227.535156 103.890625 225.878906 100.039062 225.667969 C 99.511719 227.792969 101.910156 230.054688 105.371094 230.414062 " fill-opacity="1" fill-rule="evenodd"/><path fill="#171b3e" d="M 93.484375 231.714844 C 93.925781 229.648438 96.875 228.664062 100.023438 229.671875 L 101.355469 230.324219 C 99.707031 232.691406 97.019531 233.203125 93.484375 231.714844 " fill-opacity="1" fill-rule="evenodd"/><path fill="#171b3e" d="M 152.3125 222.964844 C 157.058594 227.296875 158.816406 226.71875 162.367188 229.886719 L 170.148438 229.886719 C 170.472656 230.289062 170.472656 230.710938 170.148438 231.144531 L 162.433594 231.144531 C 160.089844 233.023438 156.726562 235.160156 152.101562 236.546875 C 155.582031 234.425781 157.765625 232.296875 160.613281 230.402344 C 156.933594 227.902344 154.167969 225.421875 152.3125 222.964844 " fill-opacity="1" fill-rule="evenodd"/><path fill="#171b3e" d="M 221.75 230.414062 C 225.210938 230.769531 227.613281 233.035156 227.082031 235.160156 C 223.230469 234.945312 221.039062 233.289062 220.609375 230.414062 C 221.039062 227.535156 223.230469 225.878906 227.082031 225.667969 C 227.613281 227.792969 225.210938 230.054688 221.75 230.414062 " fill-opacity="1" fill-rule="evenodd"/><path fill="#171b3e" d="M 233.304688 235.160156 C 229.457031 234.945312 227.265625 233.289062 226.835938 230.414062 C 227.265625 227.535156 229.457031 225.878906 233.304688 225.667969 C 233.835938 227.792969 231.433594 230.054688 227.972656 230.414062 C 231.433594 230.769531 233.835938 233.035156 233.304688 235.160156 " fill-opacity="1" fill-rule="evenodd"/><path fill="#171b3e" d="M 239.53125 235.160156 C 235.683594 234.945312 233.488281 233.289062 233.058594 230.414062 C 233.488281 227.535156 235.683594 225.878906 239.53125 225.667969 C 240.0625 227.792969 237.660156 230.054688 234.199219 230.414062 C 237.660156 230.769531 240.0625 233.035156 239.53125 235.160156 " fill-opacity="1" fill-rule="evenodd"/><path fill="#171b3e" d="M 245.753906 235.160156 C 241.90625 234.945312 239.714844 233.289062 239.285156 230.414062 C 239.714844 227.535156 241.90625 225.878906 245.753906 225.667969 C 246.285156 227.792969 243.886719 230.054688 240.421875 230.414062 C 243.886719 230.769531 246.285156 233.035156 245.753906 235.160156 " fill-opacity="1" fill-rule="evenodd"/><path fill="#171b3e" d="M 251.980469 235.160156 C 248.128906 234.945312 245.9375 233.289062 245.507812 230.414062 C 245.9375 227.535156 248.128906 225.878906 251.980469 225.667969 C 252.511719 227.792969 250.109375 230.054688 246.648438 230.414062 C 250.109375 230.769531 252.511719 233.035156 251.980469 235.160156 " fill-opacity="1" fill-rule="evenodd"/><path fill="#171b3e" d="M 258.203125 235.160156 C 254.355469 234.945312 252.164062 233.289062 251.734375 230.414062 C 252.164062 227.535156 254.355469 225.878906 258.203125 225.667969 C 258.734375 227.792969 256.335938 230.054688 252.871094 230.414062 C 256.335938 230.769531 258.734375 233.035156 258.203125 235.160156 " fill-opacity="1" fill-rule="evenodd"/><path fill="#171b3e" d="M 264.429688 235.160156 C 260.578125 234.945312 258.386719 233.289062 257.957031 230.414062 C 258.386719 227.535156 260.578125 225.878906 264.429688 225.667969 C 264.960938 227.792969 262.558594 230.054688 259.097656 230.414062 C 262.558594 230.769531 264.960938 233.035156 264.429688 235.160156 " fill-opacity="1" fill-rule="evenodd"/><path fill="#171b3e" d="M 270.652344 235.160156 C 266.800781 234.945312 264.609375 233.289062 264.183594 230.414062 C 264.609375 227.535156 266.800781 225.878906 270.652344 225.667969 C 271.183594 227.792969 268.78125 230.054688 265.320312 230.414062 C 268.78125 230.769531 271.183594 233.035156 270.652344 235.160156 " fill-opacity="1" fill-rule="evenodd"/><path fill="#171b3e" d="M 271.542969 230.414062 C 275.007812 230.769531 277.40625 233.035156 276.878906 235.160156 C 273.027344 234.945312 270.835938 233.289062 270.40625 230.414062 C 270.835938 227.535156 273.027344 225.878906 276.878906 225.667969 C 277.40625 227.792969 275.007812 230.054688 271.542969 230.414062 " fill-opacity="1" fill-rule="evenodd"/><path fill="#171b3e" d="M 283.433594 231.714844 C 282.992188 229.648438 280.042969 228.664062 276.894531 229.671875 L 275.5625 230.324219 C 277.210938 232.691406 279.898438 233.203125 283.433594 231.714844 " fill-opacity="1" fill-rule="evenodd"/><path fill="#171b3e" d="M 224.605469 222.964844 C 219.859375 227.296875 218.101562 226.71875 214.550781 229.886719 L 206.769531 229.886719 C 206.445312 230.289062 206.445312 230.710938 206.769531 231.144531 L 214.488281 231.144531 C 216.828125 233.023438 220.191406 235.160156 224.816406 236.546875 C 221.335938 234.425781 219.152344 232.296875 216.304688 230.402344 C 219.984375 227.902344 222.75 225.421875 224.605469 222.964844 " fill-opacity="1" fill-rule="evenodd"/><path fill="#ffffff" d="M 156.984375 146.011719 L 147.152344 138.9375 L 137.320312 146.011719 L 141.011719 134.476562 L 131.242188 127.3125 L 143.355469 127.257812 L 147.152344 115.753906 L 150.945312 127.257812 L 163.058594 127.3125 L 153.292969 134.476562 L 156.984375 146.011719 " fill-opacity="1" fill-rule="evenodd"/><path fill="#171b3e" d="M 193.371094 239.347656 L 187.792969 235.335938 L 182.21875 239.347656 L 184.3125 232.804688 L 178.773438 228.742188 L 185.640625 228.710938 L 187.792969 222.1875 L 189.945312 228.710938 L 196.816406 228.742188 L 191.277344 232.804688 L 193.371094 239.347656 " fill-opacity="1" fill-rule="evenodd"/><path fill="#171b3e" d="M 81.292969 208.90625 L 293.984375 208.90625 C 293.40625 211.453125 292.734375 213.964844 291.980469 216.441406 L 83.296875 216.441406 C 82.542969 213.964844 81.875 211.453125 81.292969 208.90625 " fill-opacity="1" fill-rule="nonzero"/></svg>